# xmcd
# 
# Track frame offsets:
#     150
#     14857
#     30575
#     47135
#     58377
#     67632
#     79215
#     93725
#     116520
#     126677
#     142812
#     159709
#     174687
#     189272
#     205407
#     218000
#     231735
#     245480
#     267092
#     284530
#     294952
#     307307
#     319907
# 
# Disc length: 4427
# 
# Revision: 0
# Processed by: cddbd v1.5.2PL0 Copyright (c) Steve Scherf et al.
# Submitted via: fre:ac v1.0.17
# 
DISCID=6d114917
DTITLE=Various Artist - South African Country Vol. 1
DYEAR=1995
DGENRE=Country
TTITLE0=Gene Rockwell - Heart
TTITLE1=Joanna Field - Don't Fly Too High
TTITLE2=Matt Hurter - Ride Safe
TTITLE3=Tommy Oliver - I Wanna Live
TTITLE4=Charles Jacobie - Mockin' Bird Song
TTITLE5=Bobby Angel - Green Eyed Angel
TTITLE6=Jody Wayne - Patches
TTITLE7=Tommy Dell - Teddy Bear
TTITLE8=Lance James and Barbara Ray - After The Fire Has Gone
TTITLE9=Paul Greef - Crying
TTITLE10=Sally Vaughn - Glory Glory Halleluja
TTITLE11=OTH - Everybody's Somebody's Darlin'
TTITLE12=Peter Vee - Sweet Mama
TTITLE13=Marie Gibson - One Day At A Time
TTITLE14=Bobby Angel and Barbara Ray - Wasn't That Love
TTITLE15=Barbara Ray - Down The Mississippi
TTITLE16=Gary Bryden - Bony Fingers
TTITLE17=Tommy Dell and Chrissie Jackson - Guardian Angel
TTITLE18=The Loaders - When The Gold In Your Hair
TTITLE19=Maureen Moore - Blue Winter
TTITLE20=Ken Mullen - Silver Threads Among The Gold
TTITLE21=Billy Forrest - Hello Operator
TTITLE22=Charles Jacobie - Waiting For A Train
EXTD=
EXTT0=
EXTT1=
EXTT2=
EXTT3=
EXTT4=
EXTT5=
EXTT6=
EXTT7=
EXTT8=
EXTT9=
EXTT10=
EXTT11=
EXTT12=
EXTT13=
EXTT14=
EXTT15=
EXTT16=
EXTT17=
EXTT18=
EXTT19=
EXTT20=
EXTT21=
EXTT22=
PLAYORDER=
